<svg width="28" height="28" viewBox="0 0 28 28" fill="none" xmlns="http://www.w3.org/2000/svg">
<path d="M26 26C26 22.8078 20.63 18.4445 14 18.4445C7.37 18.4445 2 22.8078 2 26" stroke="#3152F4" stroke-width="3" stroke-linecap="round" stroke-linejoin="round"/>
<path d="M14 2C15.5913 2 17.1174 2.60873 18.2426 3.69227C19.3679 4.77582 20 6.24542 20 7.77778C20 9.31014 19.3679 10.7797 18.2426 11.8633C17.1174 12.9468 15.5913 13.5556 14 13.5556C12.4087 13.5556 10.8826 12.9468 9.75736 11.8633C8.63214 10.7797 8 9.31014 8 7.77778C8 6.24542 8.63214 4.77582 9.75736 3.69227C10.8826 2.60873 12.4087 2 14 2Z" stroke="#3152F4" stroke-width="3" stroke-linecap="round" stroke-linejoin="round"/>
</svg>
