<svg width="60" height="60" viewBox="0 0 60 60" fill="none" xmlns="http://www.w3.org/2000/svg">
<path d="M6.71232 5.96725C5.66934 6.79139 5 8.06754 5 9.50003V50.5C5 52.9853 7.01472 55 9.5 55H50.5C50.9757 55 51.4341 54.9262 51.8645 54.7894L19.0017 24.8829C18.688 24.5909 18.577 24.1637 18.7339 23.7607C18.8907 23.3553 19.2503 23.1091 19.675 23.1091L23.7366 23.0874C24.1637 23.0874 24.5233 22.8412 24.6584 22.4358C24.8153 22.0328 24.726 21.6056 24.3881 21.3136L7.06334 5.71918C6.94232 5.79615 6.82518 5.87898 6.71232 5.96725Z" fill="#3152F4"/>
<path d="M29.1688 5L41.421 30.402C41.5778 30.7157 41.5561 31.0753 41.3751 31.3673C41.1724 31.681 40.8587 31.862 40.4991 31.862H39.3793C39.0198 31.862 38.6819 32.0406 38.5033 32.376C38.3247 32.6922 38.3247 33.0735 38.525 33.3872L51.8935 54.7801C53.6967 54.1934 55 52.4989 55 50.5V9.5C55 7.01472 52.9853 5 50.5 5H29.1688Z" fill="#4685F6"/>
<path fill-rule="evenodd" clip-rule="evenodd" d="M51.8645 54.7894C51.8742 54.7863 51.8838 54.7832 51.8935 54.7801L38.525 33.3872C38.3247 33.0735 38.3247 32.6922 38.5033 32.376C38.6819 32.0406 39.0197 31.862 39.3793 31.862H40.4991C40.8586 31.862 41.1724 31.681 41.3751 31.3673C41.5561 31.0753 41.5778 30.7157 41.4209 30.402L29.1688 5H9.49999C8.41268 5 7.41544 5.38563 6.63757 6.02758C6.66227 6.0072 6.68718 5.98708 6.71231 5.96722C6.82517 5.87894 6.94231 5.79612 7.06333 5.71915L24.3881 21.3136C24.726 21.6056 24.8153 22.0328 24.6584 22.4358C24.5233 22.8412 24.1637 23.0874 23.7366 23.0874L19.675 23.1091C19.2503 23.1091 18.8907 23.3553 18.7339 23.7607C18.577 24.1637 18.688 24.5909 19.0017 24.8829L51.8645 54.7894Z" fill="white"/>
</svg>
