<svg width="214" height="63" viewBox="0 0 214 63" fill="none" xmlns="http://www.w3.org/2000/svg">
<path d="M81.9416 0H86.9921V16.8774C86.9921 18.4383 86.6446 19.7907 85.9496 20.9317C85.2546 22.0756 84.2873 22.9646 83.0537 23.5959C81.8171 24.2214 80.3778 24.5342 78.733 24.5342C77.2792 24.5342 75.9587 24.2736 74.7713 23.7581C73.5898 23.2339 72.6515 22.4462 71.9565 21.395C71.2615 20.338 70.9169 19.0059 70.9256 17.3987H76.0224C76.0369 18.3572 76.3149 19.1015 76.8564 19.6343C77.395 20.1671 78.1103 20.4336 78.9994 20.4336C80.9454 20.4336 81.9243 19.2491 81.9416 16.8774V0Z" fill="#222038"/>
<path d="M94.7527 0L100.602 18.3833H100.823L106.684 0H112.36L104.008 24.1983H97.4169L89.0651 0H94.7527Z" fill="#222038"/>
<path d="M114.432 0H120.733L127.394 16.2635H127.684L134.344 0H140.657V24.1983H135.688V8.44449H135.491L129.224 24.0824H125.853L119.587 8.38657H119.39V24.1983H114.432V0Z" fill="#222038"/>
<path d="M72.5241 55.6565V31.4583H87.1311V34.0646H75.4548V42.2311H86.3666V44.8374H75.4548V53.0618H87.3165V55.6565H72.5241Z" fill="#6D6C7D"/>
<path d="M93.8242 31.4583V55.6565H91.0325V31.4583H93.8242Z" fill="#6D6C7D"/>
<path d="M105.534 56.0388C103.788 56.0388 102.282 55.6536 101.017 54.8804C99.7481 54.1014 98.7751 53.0125 98.0974 51.6138C97.4169 50.218 97.0781 48.5876 97.0781 46.7255C97.0781 44.8663 97.4169 43.2244 98.0974 41.8025C98.7751 40.3835 99.7249 39.2743 100.947 38.478C102.175 37.6758 103.611 37.2733 105.256 37.2733C106.197 37.2733 107.127 37.4325 108.048 37.7482C108.974 38.0667 109.811 38.5764 110.561 39.2772C111.317 39.9809 111.92 40.9105 112.368 42.0689C112.823 43.2273 113.052 44.652 113.052 46.3433V47.5248H99.8813C99.9421 49.4651 100.489 50.9507 101.526 51.9845C102.56 53.0125 103.895 53.5251 105.534 53.5251C106.629 53.5251 107.573 53.2906 108.361 52.8185C109.148 52.3494 109.719 51.6428 110.075 50.6987L112.762 51.4517C112.337 52.8185 111.488 53.9277 110.214 54.7762C108.94 55.6189 107.379 56.0388 105.534 56.0388ZM99.8813 45.1154H110.214C110.214 43.5806 109.762 42.3064 108.859 41.2928C107.961 40.2821 106.762 39.7753 105.256 39.7753C104.19 39.7753 103.267 40.0273 102.488 40.5283C101.706 41.0235 101.092 41.6808 100.646 42.4975C100.197 43.3083 99.9421 44.1829 99.8813 45.1154Z" fill="#6D6C7D"/>
<path d="M123.673 56.0388C121.965 56.0388 120.5 55.6391 119.272 54.8341C118.044 54.0319 117.097 52.9228 116.434 51.5096C115.776 50.0964 115.449 48.4862 115.449 46.6792C115.449 44.8345 115.788 43.2041 116.468 41.7909C117.146 40.3777 118.096 39.2743 119.318 38.478C120.546 37.6758 121.982 37.2733 123.627 37.2733C124.901 37.2733 126.048 37.5107 127.067 37.9799C128.093 38.4519 128.932 39.1151 129.581 39.9722C130.236 40.8236 130.647 41.814 130.809 42.9492H128.017C127.8 42.1239 127.328 41.3912 126.604 40.7484C125.877 40.0997 124.901 39.7753 123.673 39.7753C122.043 39.7753 120.731 40.3979 119.735 41.6403C118.739 42.8855 118.241 44.5333 118.241 46.5865C118.241 48.6889 118.73 50.3715 119.712 51.637C120.699 52.8967 122.02 53.5251 123.673 53.5251C124.754 53.5251 125.68 53.2471 126.454 52.6911C127.233 52.1351 127.754 51.359 128.017 50.3628H130.809C130.647 51.4372 130.256 52.4015 129.639 53.2587C129.019 54.1101 128.206 54.7848 127.195 55.2858C126.181 55.7868 125.008 56.0388 123.673 56.0388Z" fill="#6D6C7D"/>
<path d="M141.763 37.5049V39.868H137.882V50.4555C137.882 51.2432 137.998 51.8339 138.23 52.2278C138.461 52.6158 138.757 52.8736 139.122 53.0039C139.492 53.1371 139.88 53.2008 140.291 53.2008C140.598 53.2008 140.85 53.1863 141.044 53.1545C141.244 53.1168 141.404 53.085 141.519 53.0618L142.087 55.5639C141.902 55.6334 141.638 55.7029 141.299 55.7724C140.958 55.8477 140.529 55.8882 140.013 55.8882C139.226 55.8882 138.453 55.7202 137.697 55.3901C136.947 55.0513 136.324 54.5329 135.832 53.8379C135.337 53.1429 135.09 52.2712 135.09 51.22V39.868H132.357V37.5049H135.09V33.1611H137.882V37.5049H141.763Z" fill="#6D6C7D"/>
<path d="M144.958 55.6565V37.5049H147.657V40.2503H147.843C148.167 39.3554 148.761 38.6286 149.627 38.0725C150.49 37.5107 151.471 37.2269 152.569 37.2269C153.07 37.2269 153.51 37.2906 153.889 37.4123C154.266 37.5281 154.599 37.6874 154.886 37.8872L153.936 40.2503C153.742 40.1518 153.513 40.0736 153.252 40.0186C152.989 39.9578 152.685 39.9259 152.337 39.9259C151.008 39.9259 149.91 40.3313 149.047 41.1422C148.181 41.9473 147.75 42.9579 147.75 44.1771V55.6565H144.958Z" fill="#6D6C7D"/>
<path d="M156.715 55.6565V37.5049H159.507V55.6565H156.715ZM158.14 34.4816C157.59 34.4816 157.121 34.302 156.727 33.9372C156.339 33.5665 156.148 33.1205 156.148 32.5935C156.148 32.078 156.339 31.632 156.727 31.2613C157.121 30.8907 157.59 30.7053 158.14 30.7053C158.679 30.7053 159.142 30.8907 159.53 31.2613C159.924 31.632 160.121 32.078 160.121 32.5935C160.121 33.1205 159.924 33.5665 159.53 33.9372C159.142 34.302 158.679 34.4816 158.14 34.4816Z" fill="#6D6C7D"/>
<path d="M170.985 56.0388C169.277 56.0388 167.811 55.6391 166.584 54.8341C165.356 54.0319 164.409 52.9228 163.746 51.5096C163.088 50.0964 162.761 48.4862 162.761 46.6792C162.761 44.8345 163.1 43.2041 163.78 41.7909C164.458 40.3777 165.408 39.2743 166.63 38.478C167.858 37.6758 169.294 37.2733 170.939 37.2733C172.213 37.2733 173.36 37.5107 174.379 37.9799C175.405 38.4519 176.244 39.1151 176.893 39.9722C177.548 40.8236 177.959 41.814 178.121 42.9492H175.329C175.112 42.1239 174.64 41.3912 173.916 40.7484C173.189 40.0997 172.213 39.7753 170.985 39.7753C169.355 39.7753 168.043 40.3979 167.047 41.6403C166.051 42.8855 165.553 44.5333 165.553 46.5865C165.553 48.6889 166.042 50.3715 167.024 51.637C168.011 52.8967 169.332 53.5251 170.985 53.5251C172.066 53.5251 172.992 53.2471 173.765 52.6911C174.544 52.1351 175.066 51.359 175.329 50.3628H178.121C177.959 51.4372 177.568 52.4015 176.951 53.2587C176.331 54.1101 175.517 54.7848 174.507 55.2858C173.493 55.7868 172.32 56.0388 170.985 56.0388Z" fill="#6D6C7D"/>
<path d="M181.174 55.6565V37.5049H183.966V55.6565H181.174ZM182.599 34.4816C182.049 34.4816 181.58 34.302 181.186 33.9372C180.798 33.5665 180.607 33.1205 180.607 32.5935C180.607 32.078 180.798 31.632 181.186 31.2613C181.58 30.8907 182.049 30.7053 182.599 30.7053C183.138 30.7053 183.601 30.8907 183.989 31.2613C184.383 31.632 184.58 32.078 184.58 32.5935C184.58 33.1205 184.383 33.5665 183.989 33.9372C183.601 34.302 183.138 34.4816 182.599 34.4816Z" fill="#6D6C7D"/>
<path d="M195.966 37.5049V39.868H192.085V50.4555C192.085 51.2432 192.201 51.8339 192.433 52.2278C192.664 52.6158 192.96 52.8736 193.325 53.0039C193.695 53.1371 194.083 53.2008 194.494 53.2008C194.801 53.2008 195.053 53.1863 195.247 53.1545C195.447 53.1168 195.607 53.085 195.722 53.0618L196.29 55.5639C196.105 55.6334 195.841 55.7029 195.502 55.7724C195.161 55.8477 194.732 55.8882 194.216 55.8882C193.429 55.8882 192.656 55.7202 191.9 55.3901C191.15 55.0513 190.527 54.5329 190.035 53.8379C189.54 53.1429 189.293 52.2712 189.293 51.22V39.868H186.56V37.5049H189.293V33.1611H192.085V37.5049H195.966Z" fill="#6D6C7D"/>
<path d="M200.864 62.6994C200.392 62.6994 199.972 62.6588 199.601 62.5835C199.231 62.5053 198.976 62.4329 198.837 62.3634L199.544 59.9077C200.554 60.1683 201.4 60.1625 202.08 59.8845C202.767 59.6123 203.355 58.8015 203.841 57.452L204.455 55.7492L197.748 37.5049H200.771L205.776 51.9729H205.973L210.977 37.5049H214L206.204 58.5872C205.185 61.3267 203.404 62.6994 200.864 62.6994Z" fill="#6D6C7D"/>
<path d="M1.9178 1.0833C0.749659 2.00633 0 3.43562 0 5.04001V50.96C0 53.7435 2.25649 56 5.04 56H50.96C51.4928 56 52.0062 55.9173 52.4882 55.7641L15.682 22.2688C15.3306 21.9418 15.2063 21.4634 15.3819 21.012C15.5576 20.5579 15.9603 20.2822 16.4361 20.2822L20.985 20.2579C21.4634 20.2579 21.8661 19.9822 22.0174 19.5281C22.1931 19.0767 22.0931 18.5983 21.7147 18.2713L2.31094 0.80545C2.1754 0.891657 2.0442 0.984424 1.9178 1.0833Z" fill="#3152F4"/>
<path d="M27.0691 0L40.7915 28.4502C40.9671 28.8016 40.9428 29.2043 40.7401 29.5314C40.5131 29.8827 40.1617 30.0855 39.759 30.0855H38.5048C38.1021 30.0855 37.7237 30.2855 37.5237 30.6612C37.3237 31.0152 37.3237 31.4423 37.548 31.7937L52.5207 55.7537C54.5403 55.0966 56 53.1988 56 50.96V5.04C56 2.25649 53.7435 0 50.96 0H27.0691Z" fill="#4685F6"/>
</svg>
