<svg width="303" height="89" viewBox="0 0 303 89" fill="none" xmlns="http://www.w3.org/2000/svg">
<path d="M116.02 0H123.171V23.8965C123.171 26.1065 122.679 28.0214 121.695 29.6369C120.711 31.2565 119.341 32.5153 117.595 33.4092C115.844 34.2948 113.806 34.7377 111.477 34.7377C109.419 34.7377 107.549 34.3686 105.868 33.6388C104.195 32.8966 102.866 31.7813 101.882 30.2929C100.898 28.7963 100.41 26.9102 100.423 24.6345H107.639C107.66 25.9917 108.053 27.0455 108.82 27.8C109.583 28.5544 110.595 28.9316 111.854 28.9316C114.61 28.9316 115.995 27.2546 116.02 23.8965V0Z" fill="white"/>
<path d="M134.159 0L142.442 26.0286H142.753L151.052 0H159.089L147.263 34.262H137.931L126.106 0H134.159Z" fill="white"/>
<path d="M162.022 0H170.945L180.375 23.0272H180.785L190.216 0H199.155V34.262H192.119V11.9564H191.84L182.967 34.098H178.194L169.321 11.8744H169.042V34.262H162.022V0Z" fill="white"/>
<path d="M102.686 78.8034V44.5414H123.368V48.2317H106.835V59.7945H122.285V63.4847H106.835V75.1296H123.63V78.8034H102.686Z" fill="#F2F2F2"/>
<path d="M132.844 44.5414V78.8034H128.891V44.5414H132.844Z" fill="#F2F2F2"/>
<path d="M149.424 79.3446C146.952 79.3446 144.82 78.7993 143.028 77.7045C141.232 76.6015 139.854 75.0598 138.895 73.0794C137.931 71.103 137.451 68.7946 137.451 66.1581C137.451 63.5257 137.931 61.2008 138.895 59.1876C139.854 57.1785 141.199 55.6081 142.929 54.4805C144.668 53.3447 146.702 52.7747 149.031 52.7747C150.363 52.7747 151.679 53.0003 152.983 53.4472C154.295 53.8982 155.48 54.6199 156.542 55.6122C157.613 56.6085 158.465 57.9247 159.101 59.5648C159.745 61.2049 160.069 63.2223 160.069 65.6169V67.2898H141.42C141.507 70.037 142.282 72.1404 143.749 73.6042C145.213 75.0598 147.103 75.7856 149.424 75.7856C150.974 75.7856 152.311 75.4535 153.426 74.7851C154.541 74.1209 155.349 73.1204 155.854 71.7837L159.659 72.8498C159.056 74.7851 157.854 76.3555 156.05 77.5569C154.246 78.7501 152.036 79.3446 149.424 79.3446ZM141.42 63.8783H156.05C156.05 61.7052 155.411 59.9011 154.131 58.466C152.86 57.035 151.163 56.3174 149.031 56.3174C147.522 56.3174 146.214 56.6741 145.111 57.3835C144.004 58.0846 143.134 59.0154 142.503 60.1717C141.867 61.3198 141.507 62.558 141.42 63.8783Z" fill="#F2F2F2"/>
<path d="M175.107 79.3446C172.688 79.3446 170.613 78.7788 168.875 77.6389C167.136 76.5031 165.795 74.9327 164.857 72.9318C163.926 70.9308 163.462 68.6511 163.462 66.0925C163.462 63.4806 163.942 61.1721 164.906 59.1712C165.865 57.1703 167.21 55.6081 168.94 54.4805C170.679 53.3447 172.713 52.7747 175.042 52.7747C176.846 52.7747 178.469 53.111 179.913 53.7752C181.364 54.4436 182.553 55.3825 183.472 56.5962C184.398 57.8017 184.981 59.204 185.21 60.8113H181.258C180.95 59.6427 180.282 58.6054 179.257 57.6951C178.228 56.7766 176.846 56.3174 175.107 56.3174C172.799 56.3174 170.941 57.199 169.531 58.958C168.12 60.7211 167.415 63.0542 167.415 65.9613C167.415 68.9381 168.108 71.3204 169.498 73.1122C170.896 74.8958 172.766 75.7856 175.107 75.7856C176.637 75.7856 177.949 75.392 179.044 74.6047C180.146 73.8174 180.885 72.7186 181.258 71.3081H185.21C184.981 72.8293 184.427 74.1947 183.554 75.4084C182.676 76.6138 181.524 77.5692 180.093 78.2786C178.658 78.9879 176.997 79.3446 175.107 79.3446Z" fill="#F2F2F2"/>
<path d="M200.72 53.1028V56.4486H195.225V71.4393C195.225 72.5546 195.389 73.391 195.717 73.9487C196.045 74.4981 196.463 74.863 196.98 75.0476C197.505 75.2362 198.054 75.3264 198.637 75.3264C199.071 75.3264 199.428 75.3059 199.703 75.2608C199.986 75.2075 200.211 75.1624 200.375 75.1296L201.179 78.6722C200.916 78.7706 200.543 78.869 200.064 78.9674C199.58 79.074 198.973 79.1314 198.243 79.1314C197.128 79.1314 196.033 78.8936 194.963 78.4262C193.901 77.9465 193.019 77.2125 192.322 76.2284C191.621 75.2444 191.273 74.0102 191.273 72.5218V56.4486H187.402V53.1028H191.273V46.9524H195.225V53.1028H200.72Z" fill="#F2F2F2"/>
<path d="M205.244 78.8034V53.1028H209.066V56.9899H209.328C209.788 55.7229 210.628 54.6937 211.854 53.9064C213.076 53.111 214.466 52.7092 216.02 52.7092C216.729 52.7092 217.353 52.7994 217.89 52.9716C218.423 53.1356 218.894 53.3611 219.3 53.644L217.955 56.9899C217.681 56.8505 217.357 56.7397 216.988 56.6618C216.614 56.5757 216.184 56.5306 215.692 56.5306C213.81 56.5306 212.256 57.1047 211.034 58.2528C209.808 59.3926 209.197 60.8236 209.197 62.5499V78.8034H205.244Z" fill="#F2F2F2"/>
<path d="M221.891 78.8034V53.1028H225.844V78.8034H221.891ZM223.908 48.8221C223.129 48.8221 222.465 48.5679 221.907 48.0512C221.358 47.5264 221.087 46.8949 221.087 46.1487C221.087 45.4188 221.358 44.7874 221.907 44.2626C222.465 43.7377 223.129 43.4753 223.908 43.4753C224.671 43.4753 225.327 43.7377 225.877 44.2626C226.434 44.7874 226.713 45.4188 226.713 46.1487C226.713 46.8949 226.434 47.5264 225.877 48.0512C225.327 48.5679 224.671 48.8221 223.908 48.8221Z" fill="#F2F2F2"/>
<path d="M242.096 79.3446C239.677 79.3446 237.602 78.7788 235.863 77.6389C234.125 76.5031 232.784 74.9327 231.845 72.9318C230.914 70.9308 230.451 68.6511 230.451 66.0925C230.451 63.4806 230.931 61.1721 231.894 59.1712C232.854 57.1703 234.199 55.6081 235.929 54.4805C237.667 53.3447 239.701 52.7747 242.03 52.7747C243.834 52.7747 245.458 53.111 246.901 53.7752C248.353 54.4436 249.542 55.3825 250.46 56.5962C251.387 57.8017 251.969 59.204 252.199 60.8113H248.246C247.939 59.6427 247.27 58.6054 246.245 57.6951C245.216 56.7766 243.834 56.3174 242.096 56.3174C239.787 56.3174 237.93 57.199 236.519 58.958C235.109 60.7211 234.404 63.0542 234.404 65.9613C234.404 68.9381 235.097 71.3204 236.487 73.1122C237.885 74.8958 239.754 75.7856 242.096 75.7856C243.625 75.7856 244.937 75.392 246.032 74.6047C247.135 73.8174 247.873 72.7186 248.246 71.3081H252.199C251.969 72.8293 251.416 74.1947 250.542 75.4084C249.665 76.6138 248.513 77.5692 247.082 78.2786C245.647 78.9879 243.986 79.3446 242.096 79.3446Z" fill="#F2F2F2"/>
<path d="M256.522 78.8034V53.1028H260.475V78.8034H256.522ZM258.54 48.8221C257.761 48.8221 257.096 48.5679 256.539 48.0512C255.989 47.5264 255.719 46.8949 255.719 46.1487C255.719 45.4188 255.989 44.7874 256.539 44.2626C257.096 43.7377 257.761 43.4753 258.54 43.4753C259.302 43.4753 259.958 43.7377 260.508 44.2626C261.066 44.7874 261.344 45.4188 261.344 46.1487C261.344 46.8949 261.066 47.5264 260.508 48.0512C259.958 48.5679 259.302 48.8221 258.54 48.8221Z" fill="#F2F2F2"/>
<path d="M277.465 53.1028V56.4486H271.971V71.4393C271.971 72.5546 272.135 73.391 272.463 73.9487C272.791 74.4981 273.209 74.863 273.726 75.0476C274.251 75.2362 274.8 75.3264 275.382 75.3264C275.817 75.3264 276.174 75.3059 276.448 75.2608C276.731 75.2075 276.957 75.1624 277.121 75.1296L277.924 78.6722C277.662 78.7706 277.289 78.869 276.809 78.9674C276.325 79.074 275.718 79.1314 274.989 79.1314C273.873 79.1314 272.779 78.8936 271.708 78.4262C270.646 77.9465 269.765 77.2125 269.068 76.2284C268.367 75.2444 268.018 74.0102 268.018 72.5218V56.4486H264.147V53.1028H268.018V46.9524H271.971V53.1028H277.465Z" fill="#F2F2F2"/>
<path d="M284.401 88.7753C283.732 88.7753 283.138 88.7179 282.613 88.6113C282.088 88.5006 281.727 88.3981 281.53 88.2997L282.531 84.8226C283.962 85.1916 285.159 85.1834 286.123 84.7898C287.095 84.4044 287.927 83.2563 288.616 81.3456L289.485 78.9346L279.989 53.1028H284.269L291.355 73.5878H291.634L298.719 53.1028H303L291.962 82.9529C290.518 86.8317 287.997 88.7753 284.401 88.7753Z" fill="#F2F2F2"/>
<path d="M2.71539 1.53384C1.06143 2.84075 0 4.86447 0 7.1361V72.1537C0 76.0948 3.19493 79.2897 7.13608 79.2897H72.1536C72.908 79.2897 73.635 79.1727 74.3175 78.9558L22.2039 31.5302C21.7064 31.0671 21.5304 30.3897 21.7791 29.7506C22.0279 29.1077 22.5981 28.7174 23.2716 28.7174L29.7123 28.6829C30.3897 28.6829 30.9599 28.2925 31.1742 27.6496C31.423 27.0105 31.2814 26.3331 30.7456 25.8701L3.27203 1.14044C3.08012 1.2625 2.89436 1.39385 2.71539 1.53384Z" fill="white"/>
<path d="M38.3269 0L57.7563 40.2823C58.005 40.7799 57.9706 41.3501 57.6836 41.8131C57.3621 42.3106 56.8646 42.5976 56.2944 42.5976H54.5187C53.9485 42.5976 53.4127 42.8808 53.1295 43.4128C52.8463 43.9141 52.8463 44.5188 53.1639 45.0163L74.3636 78.941C77.2231 78.0106 79.2899 75.3235 79.2899 72.1536V7.13608C79.2899 3.19493 76.0949 0 72.1538 0H38.3269Z" fill="#F0F0F2"/>
</svg>
